G04 ===== Begin FILE IDENTIFICATION =====*
G04 File Format:  Gerber RS274X*
G04 ===== End FILE IDENTIFICATION =====*
%FSLAX24Y24*%
%MOIN*%
%SFA1.0000B1.0000*%
%OFA0.0B0.0*%
%ADD14R,0.078740X0.055118*%
%ADD15R,0.039370X0.019685*%
%LNcond*%
%IPPOS*%
%LPD*%
G75*
D14*
X394Y0D03*
G36*
G01X1063Y276D02*
G01X787D01*
G01Y-276D01*
G01X1063D01*
G01Y276D01*
G37*
D15*
X4862Y177D03*
Y-177D03*
G36*
G01X4724Y276D02*
G01X5000D01*
G03X787I-2106J0D01*
G01X1063D01*
G02X4724I1831J0D01*
G01X4724D01*
G37*
G36*
G01X1063Y-276D02*
G01X787D01*
G03X5000I2106J0D01*
G01X4724D01*
G02X1063I-1831J0D01*
G01X1063D01*
G37*
G36*
G01X7003Y3614D02*
G01X5444D01*
G01X5113Y3283D01*
G01Y543D01*
G01X5665D01*
G01Y3063D01*
G01X7003D01*
G01Y3614D01*
G37*
G36*
G01X5251Y543D02*
G01Y327D01*
G01X5058D01*
G01Y51D01*
G01X5361D01*
G01X5527Y216D01*
G01Y543D01*
G01X5251D01*
G37*
G36*
G01X6998Y-3051D02*
G01X5659D01*
G01Y-531D01*
G01X5108D01*
G01Y-3271D01*
G01X5439Y-3602D01*
G01X6998D01*
G01Y-3051D01*
G37*
G36*
G01X5522Y-531D02*
G01Y-205D01*
G01X5356Y-39D01*
G01X5053D01*
G01Y-315D01*
G01X5246D01*
G01Y-531D01*
G01X5522D01*
G37*
M02*

